<svg xmlns="http://www.w3.org/2000/svg" viewBox="0 0 400 300" data-imageid="motivation-outline" imageName="Motivation" class="illustrations_image" style="width: 181px;"><g id="_497_motivation_outline" data-name="#497_motivation_outline"><polygon points="147.99 115.56 132.89 134.19 140.11 134.19 140.11 205.21 154.35 205.21 154.35 134.19 161.58 134.19 147.99 115.56" fill="#f56132"/><path d="M154.35,206.21H140.11a1,1,0,0,1-1-1v-70h-6.22a1,1,0,0,1-.91-.57,1,1,0,0,1,.13-1.06l15.11-18.63a1,1,0,0,1,.8-.37,1,1,0,0,1,.78.41l13.59,18.63a1,1,0,0,1-.81,1.59h-6.23v70A1,1,0,0,1,154.35,206.21Zm-13.24-2h12.24v-70a1,1,0,0,1,1-1h5.26L148,117.2l-13,16h5.13a1,1,0,0,1,1,1Z" fill="#093f68"/><polygon points="253.53 138.17 238.42 156.8 245.65 156.8 245.65 218.27 259.89 218.27 259.89 156.8 267.11 156.8 253.53 138.17" fill="#ffbc0e"/><path d="M259.89,219.27H245.65a1,1,0,0,1-1-1V157.8h-6.23a1,1,0,0,1-.9-.57,1,1,0,0,1,.13-1.06l15.1-18.63a1.05,1.05,0,0,1,.81-.37,1,1,0,0,1,.78.41l13.58,18.63a1,1,0,0,1,.09,1,1,1,0,0,1-.9.55h-6.22v60.47A1,1,0,0,1,259.89,219.27Zm-13.24-2h12.24V156.8a1,1,0,0,1,1-1h5.26l-11.66-16-13,16h5.13a1,1,0,0,1,1,1Z" fill="#093f68"/><rect x="169.82" y="205.17" width="60.36" height="36.94" fill="#68e1fd" class="target-color"/><path d="M230.18,243.1H169.82a1,1,0,0,1-1-1V205.17a1,1,0,0,1,1-1h60.36a1,1,0,0,1,1,1V242.1A1,1,0,0,1,230.18,243.1Zm-59.36-2h58.36V206.17H170.82Z" fill="#093f68"/><path d="M238.06,73.71l1-2s-1.05-2.17-.2-3.6,1.7-3.27,2.69-2.76,1.42.72,1.42.72a1.76,1.76,0,0,1,1.44-1.29c1.11-.06,6.1,5.34,5.9,6.32-.59,2.86-3.21,6.27-5.87,8.16l-5.05,9.59-6.58-6.57Z" fill="#ffc9b0"/><path d="M239.39,89.86a1,1,0,0,1-.7-.29L232.1,83a1,1,0,0,1-.14-1.23l5.22-8.55.78-1.54a4.91,4.91,0,0,1,0-4.07l.33-.58c.83-1.45,2-3.43,3.68-2.55l.54.27a2.48,2.48,0,0,1,1.8-1c1.38,0,3.9,2.67,4.93,3.86,2.23,2.58,2.09,3.28,2,3.66-.67,3.24-3.53,6.75-6.08,8.64l-4.93,9.38a1,1,0,0,1-.73.52Zm-5.32-7.72,5.07,5.06,4.41-8.39a1,1,0,0,1,.31-.35c2.56-1.83,4.87-5,5.44-7.4a19.72,19.72,0,0,0-4.92-5.25c-.31.09-.44.53-.44.54a1,1,0,0,1-.55.63,1,1,0,0,1-.84,0s-.41-.19-1.33-.66A8.74,8.74,0,0,0,240.07,68l-.35.6c-.48.81.07,2.3.24,2.66a1,1,0,0,1,0,.89l-1,2,0,.07Zm4-8.43h0Zm11.27-2.57Zm-5-5.36Z" fill="#093f68"/><path d="M243,66.08s4.75,4,3.36,4.92-3.64-1.56-3.64-1.56,2,2.86-.18,4.32" fill="#ffc9b0"/><path d="M242.51,74.76a1,1,0,0,1-.83-.44,1,1,0,0,1,.27-1.39,1.17,1.17,0,0,0,.56-.78,3.38,3.38,0,0,0-.64-2.13,1,1,0,0,1,1.56-1.25,4.94,4.94,0,0,0,2,1.41,16.72,16.72,0,0,0-3.12-3.34,1,1,0,0,1,1.29-1.53c1.52,1.29,4.06,3.69,4,5.31a1.53,1.53,0,0,1-.71,1.22,2.5,2.5,0,0,1-2.34.14,3.31,3.31,0,0,1-.06.54,3.18,3.18,0,0,1-1.4,2.07A1,1,0,0,1,242.51,74.76Zm3.07-4.24h0Z" fill="#093f68"/><path d="M161.94,73.71l-1-2s1.05-2.17.2-3.6-1.7-3.27-2.69-2.76-1.42.72-1.42.72a1.76,1.76,0,0,0-1.44-1.29c-1.11-.06-6.1,5.34-5.9,6.32.59,2.86,3.21,6.27,5.87,8.16l5,9.59,6.59-6.57Z" fill="#ffc9b0"/><path d="M160.6,89.86h-.15a1,1,0,0,1-.73-.52L154.79,80c-2.55-1.89-5.41-5.4-6.08-8.64-.08-.38-.22-1.08,2-3.66,1-1.19,3.56-3.91,4.93-3.86a2.48,2.48,0,0,1,1.8,1l.54-.27c1.71-.89,2.85,1.1,3.68,2.55l.33.58a4.91,4.91,0,0,1,0,4.07l.78,1.54L168,81.77A1,1,0,0,1,167.9,83l-6.59,6.57A1,1,0,0,1,160.6,89.86Zm-9.9-18.8c.57,2.42,2.88,5.57,5.44,7.4a1,1,0,0,1,.31.35l4.41,8.39,5.07-5.06-4.84-7.91,0-.07-1-2a1,1,0,0,1,0-.89c.21-.44.7-1.88.24-2.66-.12-.19-.23-.4-.35-.6a8.74,8.74,0,0,0-1.15-1.71c-.92.47-1.33.66-1.33.66a1,1,0,0,1-.85,0,1,1,0,0,1-.54-.64h0s-.14-.44-.44-.53A19.72,19.72,0,0,0,150.7,71.06Zm0,.08Zm5-5.36Z" fill="#093f68"/><path d="M157,66.08s-4.75,4-3.36,4.92,3.64-1.56,3.64-1.56-2,2.86.18,4.32" fill="#ffc9b0"/><path d="M157.49,74.76a1,1,0,0,1-.56-.17,3.14,3.14,0,0,1-1.4-2.07,3.31,3.31,0,0,1-.06-.54,2.53,2.53,0,0,1-2.34-.14,1.53,1.53,0,0,1-.71-1.22c-.1-1.62,2.44-4,4-5.31a1,1,0,0,1,1.29,1.53,16.72,16.72,0,0,0-3.12,3.34,4.94,4.94,0,0,0,2-1.41A1,1,0,0,1,158.12,70a3.44,3.44,0,0,0-.63,2.13,1.17,1.17,0,0,0,.56.78,1,1,0,0,1,.27,1.39A1,1,0,0,1,157.49,74.76Z" fill="#093f68"/><path d="M245.1,81.84s-15.58,27.55-30.81,39.22v23.12H185V120.51c-15-12-30.11-38.67-30.11-38.67l8.23-6.19c9.06,14.3,20.69,27,25.33,31.92h23.08c4.64-4.88,16.26-17.62,25.33-31.92Z" fill="#68e1fd" class="target-color"/><path d="M214.29,145.18H185a1,1,0,0,1-1-1V121c-14.85-12.06-29.36-37.57-30-38.66A1,1,0,0,1,154.3,81l8.23-6.19a1,1,0,0,1,.78-.18,1,1,0,0,1,.67.45c8.83,13.93,20.14,26.42,24.91,31.45h22.22c4.76-5,16.06-17.5,24.91-31.45a1,1,0,0,1,.67-.45,1,1,0,0,1,.78.18L245.7,81a1,1,0,0,1,.27,1.29c-.64,1.13-15.6,27.41-30.68,39.22v22.63A1,1,0,0,1,214.29,145.18Zm-28.28-2h27.28V121.06a1,1,0,0,1,.4-.79c13.48-10.34,27.47-33.66,30.1-38.16l-6.66-5a227.75,227.75,0,0,1-24.86,31.16,1,1,0,0,1-.73.31H188.46a1,1,0,0,1-.73-.31A228.26,228.26,0,0,1,162.87,77.1l-6.66,5c2.59,4.43,16.16,27.05,29.42,37.62a1,1,0,0,1,.38.78Z" fill="#093f68"/><path d="M198.12,58.07a12.55,12.55,0,0,1,2.2-.17c3.41,0,6.89-.09,10,1.43a18.91,18.91,0,0,1,10.53,16.85l-.72,14H179.28a8.49,8.49,0,0,1,.16-2.61,11.3,11.3,0,0,0-.4-2.7,37.47,37.47,0,0,1-.82-6.92,26.94,26.94,0,0,1,2.24-10.65c.83-2,1.81-4.11,3.59-5.37s4.61-1.3,5.88.47A14.25,14.25,0,0,1,198.12,58.07Z" fill="#725858"/><path d="M220.13,91.15H179.28a1,1,0,0,1-1-.73,4.9,4.9,0,0,1,0-2.16,5.29,5.29,0,0,0,.1-.76,7.15,7.15,0,0,0-.25-1.85c-.05-.2-.09-.41-.13-.61a38,38,0,0,1-.84-7.11,27.92,27.92,0,0,1,2.31-11c.85-2.06,1.93-4.39,3.94-5.81a5.69,5.69,0,0,1,6.47-.13,15.27,15.27,0,0,1,8-3.87h0a17.19,17.19,0,0,1,2.37-.18h.61c3.29,0,6.69,0,9.82,1.53a19.88,19.88,0,0,1,11.09,17.75s0,0-.72,14A1,1,0,0,1,220.13,91.15Zm-39.9-2h39c.16-3.12.66-12.89.67-13a17.84,17.84,0,0,0-10-15.9c-2.72-1.33-5.75-1.33-8.95-1.33h-.62a18.68,18.68,0,0,0-2,.15h0a13.11,13.11,0,0,0-7.6,4,1.06,1.06,0,0,1-.8.32,1,1,0,0,1-.75-.42c-.93-1.29-3.14-1.19-4.49-.24-1.58,1.12-2.47,3.05-3.25,4.94a25.81,25.81,0,0,0-2.16,10.25,36.6,36.6,0,0,0,.8,6.74c0,.19.08.39.12.57a8.65,8.65,0,0,1,.3,2.37,7.49,7.49,0,0,1-.13,1C180.28,88.79,180.25,89,180.23,89.15Zm17.89-31.08h0Z" fill="#093f68"/><path d="M196.79,103.87h5.93a0,0,0,0,1,0,0v3.41a2.52,2.52,0,0,1-2.52,2.52h-.9a2.52,2.52,0,0,1-2.52-2.52v-3.41a0,0,0,0,1,0,0Z" fill="#ffc9b0"/><path d="M200.2,110.8h-.89a3.52,3.52,0,0,1-3.52-3.51v-3.42a1,1,0,0,1,1-1h5.93a1,1,0,0,1,1,1v3.42A3.52,3.52,0,0,1,200.2,110.8Zm-2.41-5.93v2.42a1.52,1.52,0,0,0,1.52,1.51h.89a1.52,1.52,0,0,0,1.52-1.51v-2.42Z" fill="#093f68"/><ellipse cx="183.78" cy="88.46" rx="5.43" ry="4.97" fill="#ffc9b0"/><path d="M183.78,94.43a6,6,0,1,1,6.43-6A6.22,6.22,0,0,1,183.78,94.43Zm0-9.94a4,4,0,1,0,4.43,4A4.22,4.22,0,0,0,183.78,84.49Z" fill="#093f68"/><ellipse cx="215.42" cy="88.46" rx="5.43" ry="4.97" fill="#ffc9b0"/><path d="M215.42,94.43a6,6,0,1,1,6.43-6A6.22,6.22,0,0,1,215.42,94.43Zm0-9.94a4,4,0,1,0,4.43,4A4.22,4.22,0,0,0,215.42,84.49Z" fill="#093f68"/><path d="M199.76,104.65h0a17.39,17.39,0,0,1-17.39-17.38V77.91s4.38-2.5,5.68-6.43c0,0,6.68,7.59,13.12,7.08a150.36,150.36,0,0,0,16-2.23V87.27A17.38,17.38,0,0,1,199.76,104.65Z" fill="#ffc9b0"/><path d="M199.76,105.65a18.41,18.41,0,0,1-18.39-18.38V77.91a1,1,0,0,1,.51-.87s4.06-2.37,5.22-5.88a1,1,0,0,1,1.7-.35c.06.08,6.41,7.21,12.29,6.75a147.79,147.79,0,0,0,15.85-2.21,1,1,0,0,1,.83.21,1,1,0,0,1,.37.77V87.27A18.41,18.41,0,0,1,199.76,105.65ZM183.37,78.46v8.81a16.4,16.4,0,0,0,16.39,16.38h0a16.4,16.4,0,0,0,16.38-16.38V77.54c-2.49.46-8.51,1.51-14.89,2-5.36.41-10.66-4.13-12.88-6.31A15.49,15.49,0,0,1,183.37,78.46Z" fill="#093f68"/><rect x="185" y="141.72" width="11.47" height="56.16" fill="#093f68"/><path d="M196.46,198.88H185a1,1,0,0,1-1-1V141.72a1,1,0,0,1,1-1h11.46a1,1,0,0,1,1,1v56.16A1,1,0,0,1,196.46,198.88Zm-10.46-2h9.46V142.72H186Z" fill="#093f68"/><rect x="204.27" y="141.72" width="9.94" height="56.16" fill="#093f68"/><path d="M214.21,198.88h-9.94a1,1,0,0,1-1-1V141.72a1,1,0,0,1,1-1h9.94a1,1,0,0,1,1,1v56.16A1,1,0,0,1,214.21,198.88Zm-8.94-2h7.94V142.72h-7.94Z" fill="#093f68"/><rect x="185.55" y="141.62" width="28.66" height="11.67" fill="#093f68"/><path d="M214.21,154.29H185.55a1,1,0,0,1-1-1V141.62a1,1,0,0,1,1-1h28.66a1,1,0,0,1,1,1v11.67A1,1,0,0,1,214.21,154.29Zm-27.66-2h26.66v-9.67H186.55Z" fill="#093f68"/><polygon points="195.03 197.88 195.03 205.21 179.49 205.21 187.26 197.88 195.03 197.88" fill="#f56132"/><path d="M195,206.21H179.49a1,1,0,0,1-.69-1.73l7.77-7.33a1,1,0,0,1,.69-.27H195a1,1,0,0,1,1,1v7.33A1,1,0,0,1,195,206.21Zm-13-2h12v-5.33h-6.38Z" fill="#093f68"/><polygon points="204.89 197.88 204.89 205.21 220.43 205.21 212.66 197.88 204.89 197.88" fill="#f56132"/><path d="M220.43,206.21H204.89a1,1,0,0,1-1-1v-7.33a1,1,0,0,1,1-1h7.77a1,1,0,0,1,.68.27l7.77,7.33a1,1,0,0,1-.68,1.73Zm-14.54-2h12l-5.65-5.33h-6.37Z" fill="#093f68"/><rect x="197.27" y="110.51" width="5.07" height="3.99" rx="1.47" fill="#fff"/><path d="M200.87,115.5h-2.13a2.48,2.48,0,0,1-2.47-2.47v-1a2.48,2.48,0,0,1,2.47-2.48h2.13a2.48,2.48,0,0,1,2.47,2.48v1A2.48,2.48,0,0,1,200.87,115.5Zm-2.13-4a.48.48,0,0,0-.47.48v1a.47.47,0,0,0,.47.47h2.13a.47.47,0,0,0,.47-.47v-1a.48.48,0,0,0-.47-.48Z" fill="#093f68"/><polygon points="198.35 114.5 195.41 130.52 199.98 137.83 203.8 131.2 201.26 114.5 198.35 114.5" fill="#fff"/><path d="M200,138.83a1,1,0,0,1-.85-.47l-4.57-7.31a1,1,0,0,1-.14-.71l3-16a1,1,0,0,1,1-.82h2.91a1,1,0,0,1,1,.85l2.54,16.7a1,1,0,0,1-.12.65l-3.82,6.63a1,1,0,0,1-.85.5Zm-3.52-8.51,3.49,5.57,2.81-4.88L200.4,115.5h-1.22Z" fill="#093f68"/><path d="M200.27,94.22a9.7,9.7,0,0,1-1.74-.15,1,1,0,0,1-.81-1.15,1,1,0,0,1,1.16-.82,7.93,7.93,0,0,0,2,.09,15.6,15.6,0,0,0-1.36-3.42,1,1,0,0,1,1.77-.93c1,1.83,2,4.26,1.46,5.43a1.36,1.36,0,0,1-.93.79A6.41,6.41,0,0,1,200.27,94.22Z" fill="#093f68"/><path d="M194.57,87.24a1,1,0,0,1-1-1,1.44,1.44,0,0,0-2.88,0,1,1,0,1,1-2,0,3.44,3.44,0,0,1,6.88,0A1,1,0,0,1,194.57,87.24Z" fill="#093f68"/><path d="M209.91,87.24a1,1,0,0,1-1-1,1.45,1.45,0,0,0-2.89,0,1,1,0,0,1-2,0,3.45,3.45,0,0,1,6.89,0A1,1,0,0,1,209.91,87.24Z" fill="#093f68"/><path d="M200.62,98a9.3,9.3,0,0,1-6.22-2.65,1,1,0,0,1-.08-1.41,1,1,0,0,1,1.42-.08c4.09,3.66,7.27,1.54,7.4,1.44a1,1,0,0,1,1.39.25,1,1,0,0,1-.23,1.38A6.41,6.41,0,0,1,200.62,98Z" fill="#093f68"/><rect x="124.64" y="216.48" width="45.18" height="25.63" fill="#68e1fd" class="target-color"/><path d="M169.82,243.1H124.64a1,1,0,0,1-1-1V216.48a1,1,0,0,1,1-1h45.18a1,1,0,0,1,1,1V242.1A1,1,0,0,1,169.82,243.1Zm-44.18-2h43.18V217.48H125.64Z" fill="#093f68"/><rect x="230.18" y="226.8" width="45.18" height="15.31" fill="#68e1fd" class="target-color"/><path d="M275.36,243.1H230.18a1,1,0,0,1-1-1V226.8a1,1,0,0,1,1-1h45.18a1,1,0,0,1,1,1v15.3A1,1,0,0,1,275.36,243.1Zm-44.18-2h43.18V227.8H231.18Z" fill="#093f68"/></g></svg>